<?xml version="1.0" standalone="no"?>
<!DOCTYPE svg PUBLIC "-//W3C//DTD SVG 20010904//EN"
 "http://www.w3.org/TR/2001/REC-SVG-20010904/DTD/svg10.dtd">
<svg version="1.0" xmlns="http://www.w3.org/2000/svg"
 width="723.000000pt" height="1280.000000pt" viewBox="0 0 723.000000 1280.000000"
 preserveAspectRatio="xMidYMid meet">
<metadata>
Created by potrace 1.15, written by Peter Selinger 2001-2017
</metadata>
<g transform="translate(0.000000,1280.000000) scale(0.100000,-0.100000)"
fill="#009688" stroke="none">
<path d="M3371 12774 c-29 -37 -34 -61 -81 -379 -22 -154 -45 -296 -51 -316
-12 -49 -45 -88 -86 -106 -19 -7 -165 -38 -325 -69 -297 -56 -352 -72 -346
-102 5 -26 53 -44 293 -111 146 -41 230 -70 251 -86 48 -37 84 -117 84 -187 0
-48 -38 -422 -54 -538 -3 -19 -1 -41 3 -49 17 -26 53 11 258 266 110 136 212
258 226 271 51 47 75 43 427 -81 179 -63 351 -120 383 -127 52 -12 60 -12 75
3 15 16 15 19 -3 53 -11 20 -126 137 -257 261 -148 139 -238 231 -238 243 0
25 28 45 268 190 197 119 232 146 232 182 0 31 -36 38 -192 39 -84 0 -239 4
-345 8 -268 9 -249 -9 -343 346 -69 262 -75 280 -104 300 -30 22 -52 18 -75
-11z"/>
<path d="M3735 10852 c-33 -21 -65 -63 -65 -85 0 -9 16 -16 45 -20 47 -7 93
-27 132 -57 22 -17 22 -17 -75 -87 -53 -38 -214 -150 -357 -248 -812 -557
-1036 -728 -1339 -1025 -176 -172 -228 -234 -285 -342 -56 -104 -74 -175 -69
-265 4 -61 10 -81 34 -116 79 -112 183 -120 406 -32 145 58 724 346 1038 517
514 280 661 353 875 433 136 51 337 107 347 97 8 -8 -88 -95 -242 -218 -97
-78 -251 -189 -475 -344 -735 -506 -964 -684 -1383 -1073 -341 -316 -769 -800
-974 -1102 -93 -137 -131 -204 -163 -289 -64 -171 -5 -252 165 -225 135 21
252 71 715 305 1164 588 2238 1047 2901 1239 252 73 334 85 334 49 0 -17 -4
-20 -295 -201 -1215 -754 -3171 -2209 -3985 -2964 -199 -185 -316 -325 -428
-511 -180 -301 -240 -548 -176 -733 25 -71 111 -156 187 -184 68 -25 184 -28
263 -7 98 26 492 183 799 319 473 209 855 409 1775 932 850 482 1564 873 1838
1006 210 102 412 176 605 221 126 29 325 32 380 4 109 -54 80 -168 -90 -346
-104 -110 -168 -160 -305 -242 -110 -65 -553 -289 -908 -458 -286 -137 -1467
-724 -1800 -895 -716 -368 -1518 -794 -2340 -1243 -299 -163 -381 -223 -554
-403 -149 -156 -246 -306 -262 -409 -29 -183 161 -271 523 -241 474 39 1115
176 1873 402 205 61 574 180 1575 506 365 119 1000 351 1690 618 209 81 496
191 638 246 263 101 307 122 307 144 0 30 -75 32 -280 10 -487 -52 -1183 -237
-2600 -690 -1196 -383 -1890 -555 -2230 -555 -86 0 -201 18 -217 34 -21 21
121 118 382 261 176 96 1016 516 1490 745 1047 505 1448 701 1865 911 704 354
968 507 1286 746 341 255 662 590 804 839 24 42 59 118 79 168 30 80 34 103
35 186 1 80 -3 103 -23 147 -99 219 -475 286 -1061 187 -706 -118 -1159 -317
-2560 -1124 -943 -543 -1272 -724 -1677 -922 -289 -142 -607 -280 -612 -266
-7 21 34 102 88 176 119 159 395 415 811 749 264 211 536 419 1480 1128 986
741 1316 992 1670 1273 265 211 598 488 638 531 139 149 86 316 -118 371 -152
41 -700 -26 -1155 -141 -504 -127 -997 -312 -1821 -683 -154 -69 -294 -129
-312 -132 -77 -15 -26 62 182 275 155 158 320 305 546 486 166 133 273 214
820 622 498 371 714 551 852 708 107 123 122 154 116 259 -7 128 -56 198 -162
227 -66 18 -234 4 -363 -30 -236 -63 -635 -206 -933 -334 -152 -65 -398 -178
-693 -316 -142 -67 -262 -121 -268 -121 -13 0 -2 63 22 119 47 108 217 300
449 504 69 61 289 242 490 402 366 293 460 377 460 414 0 28 -94 109 -166 143
-82 38 -149 45 -189 20z"/>
<path d="M4466 2119 c-254 -29 -538 -133 -736 -268 -90 -61 -252 -195 -242
-199 5 -1 103 20 218 47 371 89 508 102 594 59 69 -36 85 -66 85 -156 -1 -93
-23 -166 -106 -341 -89 -188 -127 -405 -116 -671 10 -247 76 -424 200 -537 53
-49 112 -66 132 -39 7 9 15 78 19 173 13 279 42 448 106 611 36 89 79 162 221
374 110 164 141 219 192 339 69 162 83 312 39 412 -69 157 -301 232 -606 196z"/>
</g>
</svg>
